SplineFontDB: 3.2
FontName: SingScript.sg_shapes
FullName: SingScript.sg "shapes" module
FamilyName: SingScript.sg
Weight: Regular
Copyright: Copyright (c) 2025, 05524F.sg (Singapore)
Version: v2
ItalicAngle: 0
UnderlinePosition: -100
UnderlineWidth: 67
Ascent: 600
Descent: 300
InvalidEm: 0
sfntRevision: 0x00010000
LayerCount: 2
Layer: 0 0 "Back" 1
Layer: 1 0 "Fore" 0
XUID: [1021 768 647112374 32286]
StyleMap: 0x0040
FSType: 0
OS2Version: 4
OS2_WeightWidthSlopeOnly: 0
OS2_UseTypoMetrics: 1
CreationTime: 1740441635
ModificationTime: 1753914531
PfmFamily: 65
TTFWeight: 400
TTFWidth: 5
LineGap: 81
VLineGap: 0
Panose: 3 0 5 3 0 0 0 0 0 0
OS2TypoAscent: 600
OS2TypoAOffset: 0
OS2TypoDescent: -300
OS2TypoDOffset: 0
OS2TypoLinegap: 81
OS2WinAscent: 590
OS2WinAOffset: 0
OS2WinDescent: 233
OS2WinDOffset: 0
HheadAscent: 590
HheadAOffset: 0
HheadDescent: -233
HheadDOffset: 0
OS2SubXSize: 585
OS2SubYSize: 630
OS2SubXOff: 0
OS2SubYOff: 126
OS2SupXSize: 585
OS2SupYSize: 630
OS2SupXOff: 0
OS2SupYOff: 432
OS2StrikeYSize: 44
OS2StrikeYPos: 232
OS2CapHeight: 467
OS2XHeight: 300
OS2Vendor: '5524'
OS2CodePages: 00000001.00000000
OS2UnicodeRanges: 80000003.10000000.00000000.00000000
MarkAttachClasses: 1
DEI: 91125
LangName: 1033 "" "" "" "" "" "Version v2"
Encoding: Custom
UnicodeInterp: none
NameList: AGL For New Fonts
DisplaySize: -48
AntiAlias: 1
FitToEm: 0
WidthSeparation: 50
WinInfo: 0 27 6
BeginPrivate: 6
BlueValues 21 [0 0 300 300 467 467]
OtherBlues 11 [-233 -233]
StdHW 4 [67]
StdVW 4 [67]
StemSnapH 33 [52 59 63 67 73 78 86 93 159 167]
StemSnapV 4 [67]
EndPrivate
Grid
0 -50 m 28
 351 -50 549 -50 900 -50 c 1052
0 -83 m 28
 351 -83 549 -83 900 -83 c 1052
0 349 m 28
 349 349 549 349 900 349 c 1052
0 383 m 28
 350 383 549 383 900 383 c 1052
0 -200 m 28
 351 -200 549 -200 900 -200 c 1052
0 -233 m 28
 351 -233 549 -233 900 -233 c 1052
250 211 m 28
 289 211 311 211 350 211 c 1052
250 100 m 28
 289 100 311 100 350 100 c 1052
250 -100 m 28
 289 -100 311 -100 350 -100 c 1052
250 -255 m 28

StartChar: filledbox
Encoding: 0 9632 0
Width: 517
VWidth: 0
Flags: W
HStem: -83 466<25 492>
VStem: 25 467<-83 383>
LayerCount: 2
Fore
SplineSet
25 383 m 1
 492 383 l 1
 492 -83 l 1
 25 -83 l 1
 25 383 l 1
EndSplineSet
Validated: 1
EndChar

StartChar: H22073
Encoding: 1 9633 1
Width: 517
VWidth: 0
Flags: W
HStem: -83 67<92 425> 316 67<92 425>
VStem: 25 67<-16 316> 425 67<-16 316>
LayerCount: 2
Fore
SplineSet
92 316 m 1
 92 -16 l 1
 425 -16 l 1
 425 316 l 1
 92 316 l 1
25 383 m 1
 492 383 l 1
 492 -83 l 1
 25 -83 l 1
 25 383 l 1
EndSplineSet
Validated: 1
EndChar

StartChar: uni25A2
Encoding: 2 9634 2
Width: 517
VWidth: 0
Flags: W
HStem: -83 67<92 425> 316 67<92 425>
VStem: 25 67<-16 316> 425 67<-16 316>
LayerCount: 2
Fore
SplineSet
92 316 m 1
 92 -16 l 1
 425 -16 l 1
 425 316 l 1
 92 316 l 1
25 383 m 1
 492 383 l 1
 492 -83 l 1
 25 -83 l 1
 25 383 l 1
EndSplineSet
Validated: 1
EndChar

StartChar: uni25A3
Encoding: 3 9635 3
Width: 517
VWidth: 0
Flags: W
HStem: -83 67<92 425> 33 234<142 375> 316 67<92 425>
VStem: 25 67<-16 316> 142 233<33 267> 425 67<-16 316>
CounterMasks: 1 fc
LayerCount: 2
Fore
SplineSet
142 267 m 1
 375 267 l 1
 375 33 l 1
 142 33 l 1
 142 267 l 1
92 316 m 1
 92 -16 l 1
 425 -16 l 1
 425 316 l 1
 92 316 l 1
25 383 m 1
 492 383 l 1
 492 -83 l 1
 25 -83 l 1
 25 383 l 1
EndSplineSet
Validated: 1
EndChar

StartChar: uni25A4
Encoding: 4 9636 4
Width: 517
VWidth: 0
Flags: W
HStem: -83 67<92 425> 17 66<92 425> 117 66<92 425> 217 66<92 425> 316 67<92 425>
VStem: 25 67<-16 17 83 117 183 217 283 316> 425 67<-16 17 83 117 183 217 283 316>
LayerCount: 2
Fore
SplineSet
25 383 m 1
 492 383 l 1
 492 -83 l 1
 25 -83 l 1
 25 383 l 1
425 283 m 1
 425 316 l 1
 92 316 l 1
 92 283 l 1
 425 283 l 1
425 217 m 1
 92 217 l 1
 92 183 l 1
 425 183 l 1
 425 217 l 1
425 83 m 1
 425 117 l 1
 92 117 l 1
 92 83 l 1
 425 83 l 1
425 17 m 1
 92 17 l 1
 92 -16 l 1
 425 -16 l 1
 425 17 l 1
EndSplineSet
Validated: 1
EndChar

StartChar: uni25A5
Encoding: 5 9637 5
Width: 517
VWidth: 0
Flags: W
HStem: -83 66<92 125 191 225 291 325 391 424> 316 67<92 125 191 225 291 325 391 424>
VStem: 25 67<-17 316> 125 66<-17 316> 225 66<-17 316> 325 66<-17 316> 424 68<-17 316>
LayerCount: 2
Fore
SplineSet
25 -83 m 1
 25 383 l 1
 492 383 l 1
 492 -83 l 1
 25 -83 l 1
125 316 m 1
 92 316 l 1
 92 -17 l 1
 125 -17 l 1
 125 316 l 1
191 316 m 1
 191 -17 l 1
 225 -17 l 1
 225 316 l 1
 191 316 l 1
325 316 m 1
 291 316 l 1
 291 -17 l 1
 325 -17 l 1
 325 316 l 1
391 316 m 1
 391 -17 l 1
 424 -17 l 1
 424 316 l 1
 391 316 l 1
EndSplineSet
Validated: 1
EndChar

StartChar: uni25A6
Encoding: 6 9638 6
Width: 517
VWidth: 0
Flags: W
HStem: -83 67<92 125 191 225 291 325 391 424> 17 66<92 125 191 225 291 325 391 424> 117 66<92 125 191 225 291 325 391 424> 217 66<92 125 191 225 291 325 391 424> 316 67<92 125 191 225 291 325 391 424>
VStem: 25 67<-16 17 83 117 183 217 283 316> 125 66<-16 17 83 117 183 217 283 316> 225 66<-16 17 83 117 183 217 283 316> 325 66<-16 17 83 117 183 217 283 316> 424 68<-16 17 83 117 183 217 283 316>
LayerCount: 2
Fore
SplineSet
424 316 m 1
 391 316 l 1
 391 283 l 1
 424 283 l 1
 424 316 l 1
424 217 m 1
 391 217 l 1
 391 183 l 1
 424 183 l 1
 424 217 l 1
424 117 m 1
 391 117 l 1
 391 83 l 1
 424 83 l 1
 424 117 l 1
424 17 m 1
 391 17 l 1
 391 -16 l 1
 424 -16 l 1
 424 17 l 1
325 283 m 1
 325 316 l 1
 291 316 l 1
 291 283 l 1
 325 283 l 1
325 217 m 1
 291 217 l 1
 291 183 l 1
 325 183 l 1
 325 217 l 1
325 117 m 1
 291 117 l 1
 291 83 l 1
 325 83 l 1
 325 117 l 1
325 17 m 1
 291 17 l 1
 291 -16 l 1
 325 -16 l 1
 325 17 l 1
225 316 m 1
 191 316 l 1
 191 283 l 1
 225 283 l 1
 225 316 l 1
225 217 m 1
 191 217 l 1
 191 183 l 1
 225 183 l 1
 225 217 l 1
225 117 m 1
 191 117 l 1
 191 83 l 1
 225 83 l 1
 225 117 l 1
225 17 m 1
 191 17 l 1
 191 -16 l 1
 225 -16 l 1
 225 17 l 1
125 283 m 1
 125 316 l 1
 92 316 l 1
 92 283 l 1
 125 283 l 1
125 217 m 1
 92 217 l 1
 92 183 l 1
 125 183 l 1
 125 217 l 1
125 117 m 1
 92 117 l 1
 92 83 l 1
 125 83 l 1
 125 117 l 1
125 17 m 1
 92 17 l 1
 92 -16 l 1
 125 -16 l 1
 125 17 l 1
492 -83 m 1
 25 -83 l 1
 25 383 l 1
 492 383 l 1
 492 -83 l 1
EndSplineSet
Validated: 1
EndChar

StartChar: uni25A7
Encoding: 7 9639 7
Width: 517
VWidth: 0
Flags: W
HStem: -83 66<92 211 305 377> 316 67<139 211 305 424>
VStem: 25 67<-17 102 196 269> 424 68<30 102 196 316>
LayerCount: 2
Fore
SplineSet
25 -83 m 1
 25 383 l 1
 492 383 l 1
 492 -83 l 1
 25 -83 l 1
211 -17 m 1
 92 102 l 1
 92 -17 l 1
 211 -17 l 1
305 -17 m 1
 377 -17 l 1
 92 269 l 1
 92 196 l 1
 305 -17 l 1
424 102 m 1
 211 316 l 1
 139 316 l 1
 424 30 l 1
 424 102 l 1
424 196 m 1
 424 316 l 1
 305 316 l 1
 424 196 l 1
EndSplineSet
Validated: 1
EndChar

StartChar: uni25A8
Encoding: 8 9640 8
Width: 517
VWidth: 0
Flags: W
HStem: -83 67<139 211 305 425> 316 67<92 211 305 378>
VStem: 25 67<31 103 197 316> 425 67<-16 103 197 269>
LayerCount: 2
Fore
SplineSet
25 383 m 1
 492 383 l 1
 492 -83 l 1
 25 -83 l 1
 25 383 l 1
92 197 m 1
 211 316 l 1
 92 316 l 1
 92 197 l 1
92 103 m 1
 92 31 l 1
 378 316 l 1
 305 316 l 1
 92 103 l 1
211 -16 m 1
 425 197 l 1
 425 269 l 1
 139 -16 l 1
 211 -16 l 1
305 -16 m 1
 425 -16 l 1
 425 103 l 1
 305 -16 l 1
EndSplineSet
Validated: 1
EndChar

StartChar: uni25A9
Encoding: 9 9641 9
Width: 517
VWidth: 0
Flags: W
HStem: -83 67<139 210 305 376> 316 67<139 211 305 378>
VStem: 25 67<31 102 197 269> 424 68<30 102 196 268>
LayerCount: 2
Fore
SplineSet
424 102 m 1
 388 66 l 1
 424 30 l 1
 424 102 l 1
376 -16 m 1
 341 19 l 1
 305 -16 l 1
 376 -16 l 1
258 30 m 1
 294 66 l 1
 258 103 l 1
 222 66 l 1
 258 30 l 1
341 113 m 1
 377 149 l 1
 341 185 l 1
 305 149 l 1
 341 113 l 1
424 196 m 1
 424 268 l 1
 388 232 l 1
 424 196 l 1
175 19 m 1
 139 -16 l 1
 210 -16 l 1
 175 19 l 1
92 102 m 1
 92 31 l 1
 128 66 l 1
 92 102 l 1
175 113 m 1
 211 150 l 1
 175 186 l 1
 138 150 l 1
 175 113 l 1
258 197 m 1
 294 232 l 1
 258 269 l 1
 222 233 l 1
 258 197 l 1
341 279 m 1
 378 316 l 1
 305 316 l 1
 341 279 l 1
128 233 m 1
 92 269 l 1
 92 197 l 1
 128 233 l 1
175 280 m 1
 211 316 l 1
 139 316 l 1
 175 280 l 1
492 383 m 1
 492 -83 l 1
 25 -83 l 1
 25 383 l 1
 492 383 l 1
EndSplineSet
Validated: 1
EndChar

StartChar: H18543
Encoding: 10 9642 10
Width: 350
VWidth: 0
Flags: W
HStem: 0 21G<25 325> 280 20G<25 325>
VStem: 25 300<0 300>
LayerCount: 2
Fore
SplineSet
25 300 m 1
 325 300 l 1
 325 0 l 1
 25 0 l 1
 25 300 l 1
EndSplineSet
Validated: 1
EndChar

StartChar: H18551
Encoding: 11 9643 11
Width: 350
VWidth: 0
Flags: W
HStem: 0 67<92 258> 233 67<92 258>
VStem: 25 67<67 233> 258 67<67 233>
LayerCount: 2
Fore
SplineSet
92 233 m 1
 92 67 l 1
 258 67 l 1
 258 233 l 1
 92 233 l 1
25 300 m 1
 325 300 l 1
 325 0 l 1
 25 0 l 1
 25 300 l 1
EndSplineSet
Validated: 1
EndChar

StartChar: filledrect
Encoding: 12 9644 12
Width: 517
VWidth: 0
Flags: W
HStem: 33 234<25 492>
LayerCount: 2
Fore
SplineSet
25 267 m 1
 492 267 l 1
 492 33 l 1
 25 33 l 1
 25 267 l 1
EndSplineSet
Validated: 1
EndChar

StartChar: uni25AD
Encoding: 13 9645 13
Width: 517
VWidth: 0
Flags: W
HStem: 33 67<92 425> 200 67<92 425>
VStem: 25 67<100 200> 425 67<100 200>
LayerCount: 2
Fore
SplineSet
92 200 m 1
 92 100 l 1
 425 100 l 1
 425 200 l 1
 92 200 l 1
25 267 m 1
 492 267 l 1
 492 33 l 1
 25 33 l 1
 25 267 l 1
EndSplineSet
Validated: 1
EndChar

StartChar: uni25AE
Encoding: 14 9646 14
Width: 283
VWidth: 0
Flags: W
VStem: 25 233<-83 383>
LayerCount: 2
Fore
SplineSet
25 383 m 1
 258 383 l 1
 258 -83 l 1
 25 -83 l 1
 25 383 l 1
EndSplineSet
Validated: 1
EndChar

StartChar: uni25AF
Encoding: 15 9647 15
Width: 283
VWidth: 0
Flags: W
HStem: -83 67<92 192> 316 67<92 192>
VStem: 25 67<-16 316> 192 66<-16 316>
LayerCount: 2
Fore
SplineSet
92 316 m 1
 92 -16 l 1
 192 -16 l 1
 192 316 l 1
 92 316 l 1
25 383 m 1
 258 383 l 1
 258 -83 l 1
 25 -83 l 1
 25 383 l 1
EndSplineSet
Validated: 1
EndChar

StartChar: uni25B0
Encoding: 16 9648 16
Width: 517
VWidth: 0
Flags: W
HStem: 33 234<160 357>
LayerCount: 2
Fore
SplineSet
25 33 m 1
 160 267 l 1
 492 267 l 1
 357 33 l 1
 25 33 l 1
EndSplineSet
Validated: 1
EndChar

StartChar: uni25B1
Encoding: 17 9649 17
Width: 517
VWidth: 0
Flags: W
HStem: 33 67<141 318> 200 67<199 376>
LayerCount: 2
Fore
SplineSet
199 200 m 1
 141 100 l 1
 318 100 l 1
 376 200 l 1
 199 200 l 1
25 33 m 1
 160 267 l 1
 492 267 l 1
 357 33 l 1
 25 33 l 1
EndSplineSet
Validated: 1
EndChar

StartChar: triagup
Encoding: 18 9650 18
Width: 589
VWidth: 0
Flags: W
LayerCount: 2
Fore
SplineSet
25 -83 m 1
 295 383 l 1
 564 -83 l 1
 25 -83 l 1
EndSplineSet
Validated: 1
EndChar

StartChar: uni25B3
Encoding: 19 9651 19
Width: 589
VWidth: 0
Flags: W
HStem: -83 67<141 448>
LayerCount: 2
Fore
SplineSet
141 -16 m 1
 448 -16 l 1
 295 250 l 1
 141 -16 l 1
25 -83 m 1
 295 383 l 1
 564 -83 l 1
 25 -83 l 1
EndSplineSet
Validated: 1
EndChar

StartChar: uni25B4
Encoding: 20 9652 20
Width: 396
VWidth: 0
Flags: W
HStem: 0 21G<25 371> 280 20G<186.467 209.533>
LayerCount: 2
Fore
SplineSet
25 0 m 1
 198 300 l 1
 371 0 l 1
 25 0 l 1
EndSplineSet
Validated: 1
EndChar

StartChar: uni25B5
Encoding: 21 9653 21
Width: 396
VWidth: 0
Flags: W
HStem: 0 67<141 255> 280 20G<186.467 209.533>
LayerCount: 2
Fore
SplineSet
141 67 m 1
 255 67 l 1
 198 167 l 1
 141 67 l 1
25 0 m 1
 198 300 l 1
 371 0 l 1
 25 0 l 1
EndSplineSet
Validated: 1
EndChar

StartChar: uni25B6
Encoding: 22 9654 22
Width: 516
VWidth: 0
Flags: W
LayerCount: 2
Fore
SplineSet
25 420 m 1
 491 150 l 1
 25 -120 l 1
 25 420 l 1
EndSplineSet
Validated: 1
EndChar

StartChar: uni25B7
Encoding: 23 9655 23
Width: 516
VWidth: 0
Flags: W
VStem: 25 68<-4 304>
LayerCount: 2
Fore
SplineSet
93 304 m 1
 93 -4 l 1
 359 150 l 1
 93 304 l 1
25 420 m 1
 491 150 l 1
 25 -120 l 1
 25 420 l 1
EndSplineSet
Validated: 1
EndChar

StartChar: uni25B8
Encoding: 24 9656 24
Width: 350
VWidth: 0
Flags: W
LayerCount: 2
Fore
SplineSet
25 323 m 1
 325 150 l 1
 25 -23 l 1
 25 323 l 1
EndSplineSet
Validated: 1
EndChar

StartChar: uni25B9
Encoding: 25 9657 25
Width: 350
VWidth: 0
Flags: W
VStem: 25 67<93 207>
LayerCount: 2
Fore
SplineSet
92 207 m 1
 92 93 l 1
 192 150 l 1
 92 207 l 1
25 323 m 1
 325 150 l 1
 25 -23 l 1
 25 323 l 1
EndSplineSet
Validated: 1
EndChar

StartChar: triagrt
Encoding: 26 9658 26
Width: 350
VWidth: 0
Flags: W
LayerCount: 2
Fore
SplineSet
25 323 m 1
 325 150 l 1
 25 -23 l 1
 25 323 l 1
EndSplineSet
Validated: 1
EndChar

StartChar: uni25BB
Encoding: 27 9659 27
Width: 350
VWidth: 0
Flags: W
VStem: 25 67<93 207>
LayerCount: 2
Fore
SplineSet
92 207 m 1
 92 93 l 1
 192 150 l 1
 92 207 l 1
25 323 m 1
 325 150 l 1
 25 -23 l 1
 25 323 l 1
EndSplineSet
Validated: 1
EndChar

StartChar: triagdn
Encoding: 28 9660 28
Width: 589
VWidth: 0
Flags: W
LayerCount: 2
Fore
SplineSet
564 383 m 1
 294 -83 l 1
 25 383 l 1
 564 383 l 1
EndSplineSet
Validated: 1
EndChar

StartChar: uni25BD
Encoding: 29 9661 29
Width: 589
VWidth: 0
Flags: W
HStem: 316 67<141 448>
LayerCount: 2
Fore
SplineSet
448 316 m 1
 141 316 l 1
 294 50 l 1
 448 316 l 1
564 383 m 1
 294 -83 l 1
 25 383 l 1
 564 383 l 1
EndSplineSet
Validated: 1
EndChar

StartChar: uni25BE
Encoding: 30 9662 30
Width: 396
VWidth: 0
Flags: W
HStem: 0 21G<186.467 209.533> 280 20G<25 371>
LayerCount: 2
Fore
SplineSet
371 300 m 1
 198 0 l 1
 25 300 l 1
 371 300 l 1
EndSplineSet
Validated: 1
EndChar

StartChar: uni25BF
Encoding: 31 9663 31
Width: 396
VWidth: 0
Flags: W
HStem: 0 21G<186.467 209.533> 233 67<141 255>
LayerCount: 2
Fore
SplineSet
255 233 m 1
 141 233 l 1
 198 133 l 1
 255 233 l 1
371 300 m 1
 198 0 l 1
 25 300 l 1
 371 300 l 1
EndSplineSet
Validated: 1
EndChar

StartChar: uni25C0
Encoding: 32 9664 32
Width: 516
VWidth: 0
Flags: W
LayerCount: 2
Fore
SplineSet
491 -120 m 1
 25 150 l 1
 491 420 l 1
 491 -120 l 1
EndSplineSet
Validated: 1
EndChar

StartChar: uni25C1
Encoding: 33 9665 33
Width: 516
VWidth: 0
Flags: W
VStem: 425 66<-4 304>
LayerCount: 2
Fore
SplineSet
425 -4 m 1
 425 304 l 1
 159 150 l 1
 425 -4 l 1
491 -120 m 1
 25 150 l 1
 491 420 l 1
 491 -120 l 1
EndSplineSet
Validated: 1
EndChar

StartChar: uni25C2
Encoding: 34 9666 34
Width: 350
VWidth: 0
Flags: W
LayerCount: 2
Fore
SplineSet
325 -23 m 1
 25 150 l 1
 325 323 l 1
 325 -23 l 1
EndSplineSet
Validated: 1
EndChar

StartChar: uni25C3
Encoding: 35 9667 35
Width: 350
VWidth: 0
Flags: W
VStem: 258 67<93 207>
LayerCount: 2
Fore
SplineSet
258 93 m 1
 258 207 l 1
 158 150 l 1
 258 93 l 1
325 -23 m 1
 25 150 l 1
 325 323 l 1
 325 -23 l 1
EndSplineSet
Validated: 1
EndChar

StartChar: triaglf
Encoding: 36 9668 36
Width: 350
VWidth: 0
Flags: W
LayerCount: 2
Fore
SplineSet
325 -23 m 1
 25 150 l 1
 325 323 l 1
 325 -23 l 1
EndSplineSet
Validated: 1
EndChar

StartChar: uni25C5
Encoding: 37 9669 37
Width: 350
VWidth: 0
Flags: W
VStem: 258 67<93 207>
LayerCount: 2
Fore
SplineSet
258 93 m 1
 258 207 l 1
 158 150 l 1
 258 93 l 1
325 -23 m 1
 25 150 l 1
 325 323 l 1
 325 -23 l 1
EndSplineSet
Validated: 1
EndChar

StartChar: uni25C6
Encoding: 38 9670 38
Width: 517
VWidth: 0
Flags: W
LayerCount: 2
Fore
SplineSet
25 150 m 1
 258 383 l 1
 492 150 l 1
 258 -83 l 1
 25 150 l 1
EndSplineSet
Validated: 1
EndChar

StartChar: uni25C7
Encoding: 39 9671 39
Width: 517
VWidth: 0
Flags: W
LayerCount: 2
Fore
SplineSet
258 288 m 1
 120 150 l 1
 258 12 l 1
 397 150 l 1
 258 288 l 1
25 150 m 1
 258 383 l 1
 492 150 l 1
 258 -83 l 1
 25 150 l 1
EndSplineSet
Validated: 1
EndChar

StartChar: uni25C8
Encoding: 40 9672 40
Width: 517
VWidth: 0
Flags: W
LayerCount: 2
Fore
SplineSet
258 225 m 1
 333 150 l 1
 258 75 l 1
 183 150 l 1
 258 225 l 1
258 288 m 1
 120 150 l 1
 258 12 l 1
 397 150 l 1
 258 288 l 1
25 150 m 1
 258 383 l 1
 492 150 l 1
 258 -83 l 1
 25 150 l 1
EndSplineSet
Validated: 1
EndChar

StartChar: uni25C9
Encoding: 41 9673 41
Width: 517
VWidth: 0
Flags: W
HStem: -83 67<182.717 333.442> 33 234<194.769 321.231> 316 67<182.717 333.442>
VStem: 25 67<74.7171 225.283> 141 234<86.7689 213.231> 425 67<74.7171 225.283>
CounterMasks: 1 e0
LayerCount: 2
Fore
SplineSet
258 316 m 0
 166 316 92 242 92 150 c 0
 92 58 166 -16 258 -16 c 0
 350 -16 425 58 425 150 c 0
 425 242 350 316 258 316 c 0
25 150 m 0
 25 279 129 383 258 383 c 0
 387 383 492 279 492 150 c 0
 492 21 387 -83 258 -83 c 0
 129 -83 25 21 25 150 c 0
258 267 m 0
 323 267 375 215 375 150 c 0
 375 85 323 33 258 33 c 0
 193 33 141 85 141 150 c 0
 141 215 193 267 258 267 c 0
EndSplineSet
Validated: 1
EndChar

StartChar: lozenge
Encoding: 42 9674 42
Width: 283
VWidth: 0
Flags: W
VStem: 25 233
LayerCount: 2
Fore
SplineSet
142 250 m 1
 100 150 l 1
 142 67 l 1
 183 150 l 1
 142 250 l 1
25 150 m 1
 142 383 l 1
 258 150 l 1
 142 -83 l 1
 25 150 l 1
EndSplineSet
Validated: 1
EndChar

StartChar: circle
Encoding: 43 9675 43
Width: 517
VWidth: 0
Flags: W
HStem: -83 67<182.717 333.442> 316 67<182.717 333.442>
VStem: 25 67<74.7171 225.283> 425 67<74.7171 225.283>
LayerCount: 2
Fore
SplineSet
258 316 m 0
 166 316 92 242 92 150 c 0
 92 58 166 -16 258 -16 c 0
 350 -16 425 58 425 150 c 0
 425 242 350 316 258 316 c 0
25 150 m 0
 25 279 129 383 258 383 c 0
 387 383 492 279 492 150 c 0
 492 21 387 -83 258 -83 c 0
 129 -83 25 21 25 150 c 0
EndSplineSet
Validated: 1
EndChar

StartChar: uni25CC
Encoding: 44 9676 44
Width: 517
VWidth: 0
Flags: W
HStem: -83 67<182.717 333.442> 316 67<182.717 333.442>
VStem: 25 67<74.7171 225.283> 425 67<74.7171 225.283>
LayerCount: 2
Fore
SplineSet
258 316 m 0
 166 316 92 242 92 150 c 0
 92 58 166 -16 258 -16 c 0
 350 -16 425 58 425 150 c 0
 425 242 350 316 258 316 c 0
25 150 m 0
 25 279 129 383 258 383 c 0
 387 383 492 279 492 150 c 0
 492 21 387 -83 258 -83 c 0
 129 -83 25 21 25 150 c 0
EndSplineSet
Validated: 1
EndChar

StartChar: uni25CD
Encoding: 45 9677 45
Width: 517
VWidth: 0
Flags: W
HStem: -83 466<167.172 348.984>
VStem: 25 67<78.8373 221.163> 109 66<76 224> 225 67<-13 313> 342 66<77 223> 425 67<79.3369 220.663>
LayerCount: 2
Fore
SplineSet
25 150 m 0
 25 279 129 383 258 383 c 0
 387 383 492 279 492 150 c 0
 492 21 387 -83 258 -83 c 0
 129 -83 25 21 25 150 c 0
408 223 m 1
 408 77 l 1
 419 100 425 124 425 150 c 0
 425 176 419 200 408 223 c 1
342 294 m 1
 326 303 310 309 292 313 c 1
 292 -13 l 1
 310 -9 326 -3 342 6 c 1
 342 294 l 1
175 6 m 1
 191 -3 207 -9 225 -13 c 1
 225 313 l 1
 207 309 191 303 175 294 c 1
 175 6 l 1
109 76 m 1
 109 224 l 1
 98 201 92 176 92 150 c 0
 92 124 98 99 109 76 c 1
EndSplineSet
Validated: 1
EndChar

StartChar: uni25CE
Encoding: 46 9678 46
Width: 517
VWidth: 0
Flags: W
HStem: -83 67<182.717 333.442> 33 67<219.436 296.564> 200 67<219.59 296.564> 316 67<182.717 333.442>
VStem: 25 67<74.7171 225.283> 141 67<111.436 188.41> 308 67<111.436 188.564> 425 67<74.7171 225.283>
LayerCount: 2
Fore
SplineSet
258 316 m 0
 166 316 92 242 92 150 c 0
 92 58 166 -16 258 -16 c 0
 350 -16 425 58 425 150 c 0
 425 242 350 316 258 316 c 0
25 150 m 0
 25 279 129 383 258 383 c 0
 387 383 492 279 492 150 c 0
 492 21 387 -83 258 -83 c 0
 129 -83 25 21 25 150 c 0
258 267 m 0
 323 267 375 215 375 150 c 0
 375 85 323 33 258 33 c 0
 193 33 141 85 141 150 c 0
 141 215 193 267 258 267 c 0
208 150 m 0
 208 122 230 100 258 100 c 0
 286 100 308 122 308 150 c 0
 308 178 286 200 258 200 c 0
 231 200 208 177 208 150 c 0
EndSplineSet
Validated: 1
EndChar

StartChar: H18533
Encoding: 47 9679 47
Width: 517
VWidth: 0
Flags: W
HStem: -83 466<167.172 348.984>
VStem: 25 467<59.1719 240.828>
LayerCount: 2
Fore
SplineSet
25 150 m 0
 25 279 129 383 258 383 c 0
 387 383 492 279 492 150 c 0
 492 21 387 -83 258 -83 c 0
 129 -83 25 21 25 150 c 0
EndSplineSet
Validated: 1
EndChar

StartChar: uni25D0
Encoding: 48 9680 48
Width: 517
VWidth: 0
Flags: W
HStem: -83 67<258 332.96> 316 67<258 332.96>
VStem: 25 233<59.1719 240.828> 425 67<74.7171 225.283>
LayerCount: 2
Fore
SplineSet
258 316 m 1
 258 -16 l 1
 350 -16 425 58 425 150 c 0
 425 242 350 316 258 316 c 1
25 150 m 0
 25 279 129 383 258 383 c 0
 387 383 492 279 492 150 c 0
 492 21 387 -83 258 -83 c 0
 129 -83 25 21 25 150 c 0
EndSplineSet
Validated: 1
EndChar

StartChar: uni25D1
Encoding: 49 9681 49
Width: 517
VWidth: 0
Flags: W
HStem: -83 67<183.147 258> 316 67<183.147 258>
VStem: 25 67<74.7171 225.283> 258 234<59.1719 240.828>
LayerCount: 2
Fore
SplineSet
258 316 m 1
 166 316 92 242 92 150 c 0
 92 58 166 -16 258 -16 c 1
 258 316 l 1
25 150 m 0
 25 279 129 383 258 383 c 0
 387 383 492 279 492 150 c 0
 492 21 387 -83 258 -83 c 0
 129 -83 25 21 25 150 c 0
EndSplineSet
Validated: 1
EndChar

StartChar: uni25D2
Encoding: 50 9682 50
Width: 517
VWidth: 0
Flags: W
HStem: -83 233<167.172 348.984> 316 67<182.717 333.442>
VStem: 25 67<150 224.853> 425 67<150 224.853>
LayerCount: 2
Fore
SplineSet
258 316 m 0
 166 316 92 242 92 150 c 1
 425 150 l 1
 425 242 350 316 258 316 c 0
25 150 m 0
 25 279 129 383 258 383 c 0
 387 383 492 279 492 150 c 0
 492 21 387 -83 258 -83 c 0
 129 -83 25 21 25 150 c 0
EndSplineSet
Validated: 1
EndChar

StartChar: uni25D3
Encoding: 51 9683 51
Width: 517
VWidth: 0
Flags: W
HStem: -83 67<182.717 333.442> 150 233<167.172 348.984>
VStem: 25 67<75.1472 150> 425 67<75.1472 150>
LayerCount: 2
Fore
SplineSet
92 150 m 1
 92 58 166 -16 258 -16 c 0
 350 -16 425 58 425 150 c 1
 92 150 l 1
25 150 m 0
 25 279 129 383 258 383 c 0
 387 383 492 279 492 150 c 0
 492 21 387 -83 258 -83 c 0
 129 -83 25 21 25 150 c 0
EndSplineSet
Validated: 1
EndChar

StartChar: uni25D4
Encoding: 52 9684 52
Width: 517
VWidth: 0
Flags: W
HStem: -83 67<182.717 333.442> 316 67<183.147 258>
VStem: 25 67<74.7171 225.283> 425 67<75.1472 150>
LayerCount: 2
Fore
SplineSet
258 316 m 1
 166 316 92 242 92 150 c 0
 92 58 166 -16 258 -16 c 0
 350 -16 425 58 425 150 c 1
 258 150 l 1
 258 316 l 1
25 150 m 0
 25 279 129 383 258 383 c 0
 387 383 492 279 492 150 c 0
 492 21 387 -83 258 -83 c 0
 129 -83 25 21 25 150 c 0
EndSplineSet
Validated: 1
EndChar

StartChar: uni25D5
Encoding: 53 9685 53
Width: 517
VWidth: 0
Flags: W
HStem: -83 233<167.172 258> 316 67<183.147 258>
VStem: 25 67<150 224.853> 258 234<150 240.828>
LayerCount: 2
Fore
SplineSet
258 316 m 1
 166 316 92 242 92 150 c 1
 258 150 l 1
 258 316 l 1
25 150 m 0
 25 279 129 383 258 383 c 0
 387 383 492 279 492 150 c 0
 492 21 387 -83 258 -83 c 0
 129 -83 25 21 25 150 c 0
EndSplineSet
Validated: 1
EndChar

StartChar: uni25D6
Encoding: 54 9686 54
Width: 517
VWidth: 0
Flags: W
VStem: 25 233<97.281 202.719>
LayerCount: 2
Fore
SplineSet
25 150 m 0
 25 279 129 383 258 383 c 1
 258 -83 l 1
 129 -83 25 21 25 150 c 0
EndSplineSet
Validated: 1
EndChar

StartChar: uni25D7
Encoding: 55 9687 55
Width: 517
VWidth: 0
Flags: W
VStem: 258 234<97.281 202.719>
LayerCount: 2
Fore
SplineSet
258 383 m 1
 387 383 492 279 492 150 c 0
 492 21 387 -83 258 -83 c 1
 258 383 l 1
EndSplineSet
Validated: 1
EndChar

StartChar: uni25DC
Encoding: 56 9692 56
Width: 517
VWidth: 0
Flags: W
HStem: 316 67<183.147 258>
VStem: 25 67<150 224.853>
LayerCount: 2
Fore
SplineSet
258 383 m 1
 258 316 l 1
 165 315 92 242 92 150 c 1
 25 150 l 1
 25 279 129 383 258 383 c 1
EndSplineSet
Validated: 1
EndChar

StartChar: uni25DD
Encoding: 57 9693 57
Width: 517
VWidth: 0
Flags: W
HStem: 316 67<258 332.853>
VStem: 424 67<150 224.853>
LayerCount: 2
Fore
SplineSet
491 150 m 1
 424 150 l 1
 423 243 350 316 258 316 c 1
 258 383 l 1
 387 383 491 279 491 150 c 1
EndSplineSet
Validated: 1
EndChar

StartChar: uni25DE
Encoding: 58 9694 58
Width: 517
VWidth: 0
Flags: W
HStem: -83 67<258 332.853>
VStem: 424 67<75.1472 150>
LayerCount: 2
Fore
SplineSet
258 -83 m 1
 258 -16 l 1
 351 -15 424 58 424 150 c 1
 491 150 l 1
 491 21 387 -83 258 -83 c 1
EndSplineSet
Validated: 1
EndChar

StartChar: uni25DF
Encoding: 59 9695 59
Width: 517
VWidth: 0
Flags: W
HStem: -83 67<183.147 258>
VStem: 25 67<75.1472 150>
LayerCount: 2
Fore
SplineSet
25 150 m 1
 92 150 l 1
 93 57 166 -16 258 -16 c 1
 258 -83 l 1
 129 -83 25 21 25 150 c 1
EndSplineSet
Validated: 1
EndChar

StartChar: uni25E0
Encoding: 60 9696 60
Width: 517
VWidth: 0
Flags: W
HStem: 316 67<182.717 333.442>
VStem: 25 67<150 224.853> 425 67<150 224.853>
LayerCount: 2
Fore
SplineSet
25 150 m 1
 25 279 129 383 258 383 c 0
 387 383 492 279 492 150 c 1
 425 150 l 1
 425 242 350 316 258 316 c 0
 166 316 92 242 92 150 c 1
 25 150 l 1
EndSplineSet
Validated: 1
EndChar

StartChar: uni25E1
Encoding: 61 9697 61
Width: 517
VWidth: 0
Flags: W
HStem: -50 67<182.558 333.283>
VStem: 24 67<108.147 183> 424 67<108.147 183>
LayerCount: 2
Fore
SplineSet
491 183 m 1
 491 54 387 -50 258 -50 c 0
 129 -50 24 54 24 183 c 1
 91 183 l 1
 91 91 166 17 258 17 c 0
 350 17 424 91 424 183 c 1
 491 183 l 1
EndSplineSet
Validated: 1
EndChar

StartChar: uni25E2
Encoding: 62 9698 62
Width: 517
VWidth: 0
Flags: W
LayerCount: 2
Fore
SplineSet
25 -83 m 1
 492 383 l 1
 492 -83 l 1
 25 -83 l 1
EndSplineSet
Validated: 1
EndChar

StartChar: uni25E3
Encoding: 63 9699 63
Width: 517
VWidth: 0
Flags: W
LayerCount: 2
Fore
SplineSet
25 383 m 1
 492 -83 l 1
 25 -83 l 1
 25 383 l 1
EndSplineSet
Validated: 1
EndChar

StartChar: uni25E4
Encoding: 64 9700 64
Width: 517
VWidth: 0
Flags: W
LayerCount: 2
Fore
SplineSet
25 383 m 1
 492 383 l 1
 25 -83 l 1
 25 383 l 1
EndSplineSet
Validated: 1
EndChar

StartChar: uni25E5
Encoding: 65 9701 65
Width: 517
VWidth: 0
Flags: W
LayerCount: 2
Fore
SplineSet
25 383 m 1
 492 383 l 1
 492 -83 l 1
 25 383 l 1
EndSplineSet
Validated: 1
EndChar

StartChar: openbullet
Encoding: 66 9702 66
Width: 284
VWidth: 0
Flags: W
HStem: 33 67<103.436 180.564> 200 67<103.59 180.564>
VStem: 25 67<111.436 188.41> 192 67<111.436 188.564>
LayerCount: 2
Fore
SplineSet
92 150 m 0
 92 122 114 100 142 100 c 0
 170 100 192 122 192 150 c 0
 192 178 170 200 142 200 c 0
 115 200 92 177 92 150 c 0
142 267 m 0
 207 267 259 215 259 150 c 0
 259 85 207 33 142 33 c 0
 77 33 25 85 25 150 c 0
 25 215 77 267 142 267 c 0
EndSplineSet
Validated: 1
EndChar

StartChar: uni25E7
Encoding: 67 9703 67
Width: 517
VWidth: 0
Flags: W
HStem: -83 67<258 425> 316 67<258 425>
VStem: 25 233<-16 316> 425 67<-16 316>
LayerCount: 2
Fore
SplineSet
25 383 m 1
 492 383 l 1
 492 -83 l 1
 25 -83 l 1
 25 383 l 1
258 316 m 1
 258 -16 l 1
 425 -16 l 1
 425 316 l 1
 258 316 l 1
EndSplineSet
Validated: 1
EndChar

StartChar: uni25E8
Encoding: 68 9704 68
Width: 517
VWidth: 0
Flags: W
HStem: -83 67<92 258> 316 67<92 258>
VStem: 25 67<-16 316> 258 234<-16 316>
LayerCount: 2
Fore
SplineSet
25 383 m 1
 492 383 l 1
 492 -83 l 1
 25 -83 l 1
 25 383 l 1
92 316 m 1
 92 -16 l 1
 258 -16 l 1
 258 316 l 1
 92 316 l 1
EndSplineSet
Validated: 1
EndChar

StartChar: uni25E9
Encoding: 69 9705 69
Width: 517
VWidth: 0
Flags: W
HStem: -83 67<92 425>
VStem: 425 67<-16 316>
LayerCount: 2
Fore
SplineSet
25 383 m 1
 492 383 l 1
 492 -83 l 1
 25 -83 l 1
 25 383 l 1
92 -16 m 1
 425 -16 l 1
 425 316 l 1
 92 -16 l 1
EndSplineSet
Validated: 1
EndChar

StartChar: uni25EA
Encoding: 70 9706 70
Width: 517
VWidth: 0
Flags: W
HStem: 316 67<92 425>
VStem: 25 67<-16 316>
LayerCount: 2
Fore
SplineSet
25 383 m 1
 492 383 l 1
 492 -83 l 1
 25 -83 l 1
 25 383 l 1
92 316 m 1
 92 -16 l 1
 425 316 l 1
 92 316 l 1
EndSplineSet
Validated: 1
EndChar

StartChar: uni25EB
Encoding: 71 9707 71
Width: 517
VWidth: 0
Flags: W
HStem: -83 67<92 225 291 425> 316 67<92 225 291 425>
VStem: 25 67<-16 316> 225 66<-16 316> 425 67<-16 316>
LayerCount: 2
Fore
SplineSet
92 316 m 1
 92 -16 l 1
 225 -16 l 1
 225 316 l 1
 92 316 l 1
25 383 m 1
 492 383 l 1
 492 -83 l 1
 25 -83 l 1
 25 383 l 1
291 316 m 1
 291 -16 l 1
 425 -16 l 1
 425 316 l 1
 291 316 l 1
EndSplineSet
Validated: 1
EndChar

StartChar: uni25EC
Encoding: 72 9708 72
Width: 589
VWidth: 0
Flags: W
HStem: -83 67<141 448> 22 100<255.854 334.455>
VStem: 245 100<32.5452 111.146>
LayerCount: 2
Fore
SplineSet
245 72 m 0
 245 99 268 122 295 122 c 0
 323 122 345 100 345 72 c 0
 345 44 323 22 295 22 c 0
 267 22 245 44 245 72 c 0
25 -83 m 1
 295 383 l 1
 564 -83 l 1
 25 -83 l 1
141 -16 m 1
 448 -16 l 1
 295 250 l 1
 141 -16 l 1
EndSplineSet
Validated: 1
EndChar

StartChar: uni25ED
Encoding: 73 9709 73
Width: 589
VWidth: 0
Flags: W
HStem: -83 67<295 448>
LayerCount: 2
Fore
SplineSet
25 -83 m 1
 295 383 l 1
 564 -83 l 1
 25 -83 l 1
295 -16 m 1
 448 -16 l 1
 295 250 l 1
 295 -16 l 1
EndSplineSet
Validated: 1
EndChar

StartChar: uni25EE
Encoding: 74 9710 74
Width: 589
VWidth: 0
Flags: W
HStem: -83 67<141 295>
LayerCount: 2
Fore
SplineSet
25 -83 m 1
 295 383 l 1
 564 -83 l 1
 25 -83 l 1
141 -16 m 1
 295 -16 l 1
 295 250 l 1
 141 -16 l 1
EndSplineSet
Validated: 1
EndChar

StartChar: uni25EF
Encoding: 75 9711 75
Width: 517
VWidth: 0
Flags: W
HStem: -83 67<182.717 333.442> 316 67<182.717 333.442>
VStem: 25 67<74.7171 225.283> 425 67<74.7171 225.283>
LayerCount: 2
Fore
SplineSet
25 150 m 0
 25 279 129 383 258 383 c 0
 387 383 492 279 492 150 c 0
 492 21 387 -83 258 -83 c 0
 129 -83 25 21 25 150 c 0
258 316 m 0
 166 316 92 242 92 150 c 0
 92 58 166 -16 258 -16 c 0
 350 -16 425 58 425 150 c 0
 425 242 350 316 258 316 c 0
EndSplineSet
Validated: 1
EndChar

StartChar: uni25F0
Encoding: 76 9712 76
Width: 517
VWidth: 0
Flags: W
HStem: -83 67<92 425> 117 66<92 225> 316 67<92 225 292 425>
VStem: 25 67<-16 117 183 316> 225 67<183 316> 425 67<-16 316>
CounterMasks: 1 fc
LayerCount: 2
Fore
SplineSet
225 316 m 1
 92 316 l 1
 92 183 l 1
 225 183 l 1
 225 316 l 1
292 316 m 1
 292 117 l 1
 92 117 l 1
 92 -16 l 1
 425 -16 l 1
 425 316 l 1
 292 316 l 1
25 383 m 1
 492 383 l 1
 492 -83 l 1
 25 -83 l 1
 25 383 l 1
EndSplineSet
Validated: 1
EndChar

StartChar: uni25F1
Encoding: 77 9713 77
Width: 517
VWidth: 0
Flags: W
HStem: -83 67<92 225 292 425> 117 66<92 225> 316 67<92 425>
VStem: 25 67<-16 117 183 316> 225 67<-16 117> 425 67<-16 316>
CounterMasks: 1 fc
LayerCount: 2
Fore
SplineSet
225 -16 m 1
 225 117 l 1
 92 117 l 1
 92 -16 l 1
 225 -16 l 1
292 -16 m 1
 425 -16 l 1
 425 316 l 1
 92 316 l 1
 92 183 l 1
 292 183 l 1
 292 -16 l 1
25 383 m 1
 492 383 l 1
 492 -83 l 1
 25 -83 l 1
 25 383 l 1
EndSplineSet
Validated: 1
EndChar

StartChar: uni25F2
Encoding: 78 9714 78
Width: 517
VWidth: 0
Flags: W
HStem: -83 67<92 225 292 425> 117 66<292 425> 316 67<92 425>
VStem: 25 67<-16 316> 225 67<-16 117> 425 67<-16 117 183 316>
CounterMasks: 1 fc
LayerCount: 2
Fore
SplineSet
425 117 m 1
 292 117 l 1
 292 -16 l 1
 425 -16 l 1
 425 117 l 1
25 383 m 1
 492 383 l 1
 492 -83 l 1
 25 -83 l 1
 25 383 l 1
92 316 m 1
 92 -16 l 1
 225 -16 l 1
 225 183 l 1
 425 183 l 1
 425 316 l 1
 92 316 l 1
EndSplineSet
Validated: 1
EndChar

StartChar: uni25F3
Encoding: 79 9715 79
Width: 517
VWidth: 0
Flags: W
HStem: -83 67<92 425> 117 66<292 425> 316 67<92 225 292 425>
VStem: 25 67<-16 316> 225 67<183 316> 425 67<-16 117 183 316>
CounterMasks: 1 fc
LayerCount: 2
Fore
SplineSet
292 316 m 1
 292 183 l 1
 425 183 l 1
 425 316 l 1
 292 316 l 1
25 383 m 1
 492 383 l 1
 492 -83 l 1
 25 -83 l 1
 25 383 l 1
92 316 m 1
 92 -16 l 1
 425 -16 l 1
 425 117 l 1
 225 117 l 1
 225 316 l 1
 92 316 l 1
EndSplineSet
Validated: 1
EndChar

StartChar: uni25F4
Encoding: 80 9716 80
Width: 517
VWidth: 0
Flags: W
HStem: -83 67<182.505 333.442> 117 66<95 225>
VStem: 225 67<183 313> 425 67<74.7171 225.378>
LayerCount: 2
Fore
SplineSet
95 183 m 1
 225 183 l 1
 225 313 l 1
 160 300 108 248 95 183 c 1
292 313 m 1
 292 117 l 1
 95 117 l 1
 110 40 179 -16 258 -16 c 0
 350 -16 425 58 425 150 c 0
 425 229 369 297 292 313 c 1
25 150 m 0
 25 279 129 383 258 383 c 0
 387 383 492 279 492 150 c 0
 492 21 387 -83 258 -83 c 0
 129 -83 25 21 25 150 c 0
EndSplineSet
Validated: 1
EndChar

StartChar: uni25F5
Encoding: 81 9717 81
Width: 517
VWidth: 0
Flags: W
HStem: 117 66<95 225> 316 67<182.505 333.442>
VStem: 225 67<-13 117> 425 67<74.6216 225.283>
LayerCount: 2
Fore
SplineSet
225 -13 m 1
 225 117 l 1
 95 117 l 1
 108 52 160 0 225 -13 c 1
292 -13 m 1
 369 3 425 71 425 150 c 0
 425 242 350 316 258 316 c 0
 179 316 110 260 95 183 c 1
 292 183 l 1
 292 -13 l 1
25 150 m 0
 25 279 129 383 258 383 c 0
 387 383 492 279 492 150 c 0
 492 21 387 -83 258 -83 c 0
 129 -83 25 21 25 150 c 0
EndSplineSet
Validated: 1
EndChar

StartChar: uni25F6
Encoding: 82 9718 82
Width: 517
VWidth: 0
Flags: W
HStem: 117 66<292 422> 316 67<182.717 333.569>
VStem: 25 67<74.5053 225.283> 225 67<-13 117>
LayerCount: 2
Fore
SplineSet
422 117 m 1
 292 117 l 1
 292 -13 l 1
 357 0 409 52 422 117 c 1
25 150 m 0
 25 279 129 383 258 383 c 0
 387 383 492 279 492 150 c 0
 492 21 387 -83 258 -83 c 0
 129 -83 25 21 25 150 c 0
258 316 m 0
 166 316 92 242 92 150 c 0
 92 71 148 2 225 -13 c 1
 225 183 l 1
 422 183 l 1
 406 260 337 316 258 316 c 0
EndSplineSet
Validated: 1
EndChar

StartChar: uni25F7
Encoding: 83 9719 83
Width: 517
VWidth: 0
Flags: W
HStem: -83 67<182.717 333.569> 117 66<292 422>
VStem: 25 67<74.7171 225.495> 225 67<183 313>
LayerCount: 2
Fore
SplineSet
422 117 m 1
 225 117 l 1
 225 313 l 1
 148 298 92 229 92 150 c 0
 92 58 166 -16 258 -16 c 0
 337 -16 406 40 422 117 c 1
292 313 m 1
 292 183 l 1
 422 183 l 1
 409 248 357 300 292 313 c 1
25 150 m 0
 25 279 129 383 258 383 c 0
 387 383 492 279 492 150 c 0
 492 21 387 -83 258 -83 c 0
 129 -83 25 21 25 150 c 0
EndSplineSet
Validated: 1
EndChar

StartChar: uni25F8
Encoding: 84 9720 84
Width: 517
VWidth: 0
Flags: W
HStem: 316 67<92 329>
VStem: 25 67<79 316>
LayerCount: 2
Fore
SplineSet
92 316 m 1
 92 79 l 1
 329 316 l 1
 92 316 l 1
25 383 m 1
 492 383 l 1
 25 -83 l 1
 25 383 l 1
EndSplineSet
Validated: 1
EndChar

StartChar: uni25F9
Encoding: 85 9721 85
Width: 517
VWidth: 0
Flags: W
HStem: 316 67<187 425>
VStem: 425 67<80 316>
LayerCount: 2
Fore
SplineSet
425 316 m 1
 187 316 l 1
 425 80 l 1
 425 316 l 1
492 383 m 1
 492 -83 l 1
 25 383 l 1
 492 383 l 1
EndSplineSet
Validated: 1
EndChar

StartChar: uni25FA
Encoding: 86 9722 86
Width: 517
VWidth: 0
Flags: W
HStem: -83 67<92 330>
VStem: 25 67<-16 220>
LayerCount: 2
Fore
SplineSet
92 -16 m 1
 330 -16 l 1
 92 220 l 1
 92 -16 l 1
25 -83 m 1
 25 383 l 1
 492 -83 l 1
 25 -83 l 1
EndSplineSet
Validated: 1
EndChar

StartChar: uni25FB
Encoding: 87 9723 87
Width: 350
VWidth: 0
Flags: W
HStem: 0 67<92 258> 233 67<92 258>
VStem: 25 67<67 233> 258 67<67 233>
LayerCount: 2
Fore
SplineSet
25 300 m 1
 325 300 l 1
 325 0 l 1
 25 0 l 1
 25 300 l 1
92 233 m 1
 92 67 l 1
 258 67 l 1
 258 233 l 1
 92 233 l 1
EndSplineSet
Validated: 1
EndChar

StartChar: uni25FC
Encoding: 88 9724 88
Width: 350
VWidth: 0
Flags: W
HStem: 0 21G<25 325> 280 20G<25 325>
VStem: 25 300<0 300>
LayerCount: 2
Fore
SplineSet
25 300 m 1
 325 300 l 1
 325 0 l 1
 25 0 l 1
 25 300 l 1
EndSplineSet
Validated: 1
EndChar

StartChar: uni25FD
Encoding: 89 9725 89
Width: 350
VWidth: 0
Flags: W
HStem: 0 67<92 258> 233 67<92 258>
VStem: 25 67<67 233> 258 67<67 233>
LayerCount: 2
Fore
SplineSet
25 300 m 1
 325 300 l 1
 325 0 l 1
 25 0 l 1
 25 300 l 1
92 233 m 1
 92 67 l 1
 258 67 l 1
 258 233 l 1
 92 233 l 1
EndSplineSet
Validated: 1
EndChar

StartChar: uni25FE
Encoding: 90 9726 90
Width: 350
VWidth: 0
Flags: W
HStem: 0 21G<25 325> 280 20G<25 325>
VStem: 25 300<0 300>
LayerCount: 2
Fore
SplineSet
25 300 m 1
 325 300 l 1
 325 0 l 1
 25 0 l 1
 25 300 l 1
EndSplineSet
Validated: 1
EndChar

StartChar: uni25FF
Encoding: 91 9727 91
Width: 517
VWidth: 0
Flags: W
HStem: -83 67<188 425>
VStem: 425 67<-16 221>
LayerCount: 2
Fore
SplineSet
425 -16 m 1
 425 221 l 1
 188 -16 l 1
 425 -16 l 1
492 -83 m 1
 25 -83 l 1
 492 383 l 1
 492 -83 l 1
EndSplineSet
Validated: 1
EndChar

StartChar: uni2605
Encoding: 92 9733 92
Width: 494
VWidth: 0
Flags: W
LayerCount: 2
Fore
SplineSet
247 383 m 1
 299 223 l 1
 469 223 l 1
 332 123 l 1
 384 -38 l 1
 247 61 l 1
 110 -38 l 1
 162 123 l 1
 25 223 l 1
 195 223 l 1
 247 383 l 1
EndSplineSet
Validated: 1
EndChar

StartChar: heart
Encoding: 93 9829 93
Width: 562
VWidth: 0
Flags: W
VStem: 25 512<205.422 333>
LayerCount: 2
Fore
SplineSet
281 269 m 1
 310 336 378 383 445 383 c 0
 492 383 537 333 537 280 c 0
 537 195 431 45 281 -83 c 1
 131 45 25 195 25 280 c 0
 25 333 70 383 117 383 c 0
 184 383 252 336 281 269 c 1
EndSplineSet
Validated: 1
EndChar

StartChar: uni2610
Encoding: 94 9744 94
Width: 517
VWidth: 0
Flags: W
HStem: -83 67<92 425> 316 67<92 425>
VStem: 25 67<-16 316> 425 67<-16 316>
LayerCount: 2
Fore
SplineSet
92 316 m 1
 92 -16 l 1
 425 -16 l 1
 425 316 l 1
 92 316 l 1
25 383 m 1
 492 383 l 1
 492 -83 l 1
 25 -83 l 1
 25 383 l 1
EndSplineSet
Validated: 1
EndChar

StartChar: uni2611
Encoding: 95 9745 95
Width: 517
VWidth: 0
Flags: W
HStem: -83 67<92 425> 316 67<92 425>
VStem: 25 67<-16 316> 425 67<-16 316>
LayerCount: 2
Fore
SplineSet
150 150 m 0
 150 168 165 183 183 183 c 0
 192 183 201 180 207 174 c 2
 249 132 l 1
 277 188 303 240 303 240 c 0
 309 251 320 259 333 259 c 0
 351 259 367 243 367 225 c 0
 367 220 365 215 363 210 c 0
 287 58 287 57 285 55 c 0
 279 46 269 41 258 41 c 0
 249 41 240 45 234 51 c 2
 159 126 l 2
 153 132 150 141 150 150 c 0
92 316 m 1
 92 -16 l 1
 425 -16 l 1
 425 316 l 1
 92 316 l 1
25 383 m 1
 492 383 l 1
 492 -83 l 1
 25 -83 l 1
 25 383 l 1
EndSplineSet
Validated: 1
EndChar

StartChar: uni2612
Encoding: 96 9746 96
Width: 517
VWidth: 0
Flags: W
HStem: -83 67<92 425> 316 67<92 425>
VStem: 25 67<-16 316> 425 67<-16 316>
LayerCount: 2
Fore
SplineSet
333 258 m 0
 351 258 366 243 366 225 c 0
 366 216 363 207 357 201 c 2
 305 150 l 1
 357 99 l 2
 363 93 366 84 366 75 c 0
 366 57 351 42 333 42 c 0
 324 42 315 45 309 51 c 2
 258 103 l 1
 207 51 l 2
 201 45 192 42 183 42 c 0
 165 42 150 57 150 75 c 0
 150 84 153 93 159 99 c 2
 211 150 l 1
 159 201 l 2
 153 207 150 216 150 225 c 0
 150 243 165 258 183 258 c 0
 192 258 201 255 207 249 c 2
 258 197 l 1
 309 249 l 2
 315 255 324 258 333 258 c 0
92 316 m 1
 92 -16 l 1
 425 -16 l 1
 425 316 l 1
 92 316 l 1
25 383 m 1
 492 383 l 1
 492 -83 l 1
 25 -83 l 1
 25 383 l 1
EndSplineSet
Validated: 1
EndChar

StartChar: uni2B12
Encoding: 97 11026 97
Width: 517
VWidth: 0
Flags: W
HStem: -83 67<92 425> 150 233<92 425>
VStem: 25 67<-16 150> 425 67<-16 150>
LayerCount: 2
Fore
SplineSet
25 383 m 1
 492 383 l 1
 492 -83 l 1
 25 -83 l 1
 25 383 l 1
92 150 m 1
 92 -16 l 1
 425 -16 l 1
 425 150 l 1
 92 150 l 1
EndSplineSet
Validated: 1
EndChar

StartChar: uni2B13
Encoding: 98 11027 98
Width: 517
VWidth: 0
Flags: W
HStem: -83 233<92 425> 316 67<92 425>
VStem: 25 67<150 316> 425 67<150 316>
LayerCount: 2
Fore
SplineSet
25 383 m 1
 492 383 l 1
 492 -83 l 1
 25 -83 l 1
 25 383 l 1
92 316 m 1
 92 150 l 1
 425 150 l 1
 425 316 l 1
 92 316 l 1
EndSplineSet
Validated: 1
EndChar

StartChar: uni2B14
Encoding: 99 11028 99
Width: 517
VWidth: 0
Flags: W
HStem: -83 67<92 425>
VStem: 25 67<-16 316>
LayerCount: 2
Fore
SplineSet
25 383 m 1
 492 383 l 1
 492 -83 l 1
 25 -83 l 1
 25 383 l 1
92 316 m 1
 92 -16 l 1
 425 -16 l 1
 92 316 l 1
EndSplineSet
Validated: 1
EndChar

StartChar: uni2B15
Encoding: 100 11029 100
Width: 517
VWidth: 0
Flags: W
HStem: 316 67<92 425>
VStem: 425 67<-16 316>
LayerCount: 2
Fore
SplineSet
25 383 m 1
 492 383 l 1
 492 -83 l 1
 25 -83 l 1
 25 383 l 1
92 316 m 1
 425 -16 l 1
 425 316 l 1
 92 316 l 1
EndSplineSet
Validated: 1
EndChar

StartChar: uni2B16
Encoding: 101 11030 101
Width: 517
VWidth: 0
Flags: W
LayerCount: 2
Fore
SplineSet
25 150 m 1
 258 383 l 1
 492 150 l 1
 258 -83 l 1
 25 150 l 1
258 288 m 1
 258 12 l 1
 397 150 l 1
 258 288 l 1
EndSplineSet
Validated: 1
EndChar

StartChar: uni2B17
Encoding: 102 11031 102
Width: 517
VWidth: 0
Flags: W
LayerCount: 2
Fore
SplineSet
25 150 m 1
 258 383 l 1
 492 150 l 1
 258 -83 l 1
 25 150 l 1
258 288 m 1
 120 150 l 1
 258 12 l 1
 258 288 l 1
EndSplineSet
Validated: 1
EndChar

StartChar: uni2B18
Encoding: 103 11032 103
Width: 517
VWidth: 0
Flags: W
LayerCount: 2
Fore
SplineSet
25 150 m 1
 258 383 l 1
 492 150 l 1
 258 -83 l 1
 25 150 l 1
120 150 m 1
 258 12 l 1
 397 150 l 1
 120 150 l 1
EndSplineSet
Validated: 1
EndChar

StartChar: uni2B19
Encoding: 104 11033 104
Width: 517
VWidth: 0
Flags: W
LayerCount: 2
Fore
SplineSet
25 150 m 1
 258 383 l 1
 492 150 l 1
 258 -83 l 1
 25 150 l 1
258 288 m 1
 120 150 l 1
 397 150 l 1
 258 288 l 1
EndSplineSet
Validated: 1
EndChar

StartChar: uni2B1A
Encoding: 105 11034 105
Width: 517
VWidth: 0
Flags: W
HStem: -83 67<92 425> 316 67<92 425>
VStem: 25 67<-16 316> 425 67<-16 316>
LayerCount: 2
Fore
SplineSet
25 383 m 1
 492 383 l 1
 492 -83 l 1
 25 -83 l 1
 25 383 l 1
92 316 m 1
 92 -16 l 1
 425 -16 l 1
 425 316 l 1
 92 316 l 1
EndSplineSet
Validated: 1
EndChar

StartChar: uni2B1B
Encoding: 106 11035 106
Width: 517
VWidth: 0
Flags: W
HStem: -83 466<25 492>
VStem: 25 467<-83 383>
LayerCount: 2
Fore
SplineSet
25 383 m 1
 492 383 l 1
 492 -83 l 1
 25 -83 l 1
 25 383 l 1
EndSplineSet
Validated: 1
EndChar

StartChar: uni2B1C
Encoding: 107 11036 107
Width: 517
VWidth: 0
Flags: W
HStem: -83 67<92 425> 316 67<92 425>
VStem: 25 67<-16 316> 425 67<-16 316>
LayerCount: 2
Fore
SplineSet
25 383 m 1
 492 383 l 1
 492 -83 l 1
 25 -83 l 1
 25 383 l 1
92 316 m 1
 92 -16 l 1
 425 -16 l 1
 425 316 l 1
 92 316 l 1
EndSplineSet
Validated: 1
EndChar

StartChar: uni2B1D
Encoding: 108 11037 108
Width: 350
VWidth: 0
Flags: W
HStem: 0 21G<25 325> 280 20G<25 325>
VStem: 25 300<0 300>
LayerCount: 2
Fore
SplineSet
25 300 m 1
 325 300 l 1
 325 0 l 1
 25 0 l 1
 25 300 l 1
EndSplineSet
Validated: 1
EndChar

StartChar: uni2B1E
Encoding: 109 11038 109
Width: 350
VWidth: 0
Flags: W
HStem: 0 67<92 258> 233 67<92 258>
VStem: 25 67<67 233> 258 67<67 233>
LayerCount: 2
Fore
SplineSet
25 300 m 1
 325 300 l 1
 325 0 l 1
 25 0 l 1
 25 300 l 1
92 233 m 1
 92 67 l 1
 258 67 l 1
 258 233 l 1
 92 233 l 1
EndSplineSet
Validated: 1
EndChar

StartChar: uni2B1F
Encoding: 110 11039 110
Width: 542
VWidth: 0
Flags: W
LayerCount: 2
Fore
SplineSet
271 383 m 1
 517 206 l 1
 423 -83 l 1
 119 -83 l 1
 25 206 l 1
 271 383 l 1
EndSplineSet
Validated: 1
EndChar

StartChar: uni2B20
Encoding: 111 11040 111
Width: 542
VWidth: 0
Flags: W
HStem: -83 66<168 374>
LayerCount: 2
Fore
SplineSet
271 300 m 1
 104 179 l 1
 168 -17 l 1
 374 -17 l 1
 438 179 l 1
 271 300 l 1
271 383 m 1
 517 206 l 1
 423 -83 l 1
 119 -83 l 1
 25 206 l 1
 271 383 l 1
EndSplineSet
Validated: 1
EndChar

StartChar: uni2B21
Encoding: 112 11041 112
Width: 454
VWidth: 0
Flags: W
VStem: 25 67<72 228> 362 67<72 228>
LayerCount: 2
Fore
SplineSet
227 306 m 1
 92 228 l 1
 92 72 l 1
 227 -6 l 1
 362 72 l 1
 362 228 l 1
 227 306 l 1
227 383 m 1
 429 267 l 1
 429 34 l 1
 227 -83 l 1
 25 34 l 1
 25 267 l 1
 227 383 l 1
EndSplineSet
Validated: 1
EndChar

StartChar: uni2B22
Encoding: 113 11042 113
Width: 454
VWidth: 0
Flags: W
LayerCount: 2
Fore
SplineSet
227 383 m 1
 429 267 l 1
 429 34 l 1
 227 -83 l 1
 25 34 l 1
 25 267 l 1
 227 383 l 1
EndSplineSet
Validated: 1
EndChar

StartChar: uni2B23
Encoding: 114 11043 114
Width: 516
VWidth: 0
Flags: W
LayerCount: 2
Fore
SplineSet
142 352 m 1
 374 352 l 1
 491 151 l 1
 374 -52 l 1
 141 -51 l 1
 25 150 l 1
 142 352 l 1
EndSplineSet
Validated: 1
EndChar

StartChar: uni2B24
Encoding: 115 11044 115
Width: 517
VWidth: 0
Flags: W
HStem: -83 466<167.172 348.984>
VStem: 25 467<59.1719 240.828>
LayerCount: 2
Fore
SplineSet
25 150 m 0
 25 279 129 383 258 383 c 0
 387 383 492 279 492 150 c 0
 492 21 387 -83 258 -83 c 0
 129 -83 25 21 25 150 c 0
EndSplineSet
Validated: 1
EndChar

StartChar: uni2B25
Encoding: 116 11045 116
Width: 350
VWidth: 0
Flags: W
HStem: 0 21G<155 195> 280 20G<155 195>
LayerCount: 2
Fore
SplineSet
25 150 m 1
 175 300 l 1
 325 150 l 1
 175 0 l 1
 25 150 l 1
EndSplineSet
Validated: 1
EndChar

StartChar: uni2B26
Encoding: 117 11046 117
Width: 350
VWidth: 0
Flags: W
HStem: 0 21G<155 195> 280 20G<155 195>
LayerCount: 2
Fore
SplineSet
120 150 m 1
 175 95 l 1
 230 150 l 1
 175 205 l 1
 120 150 l 1
25 150 m 1
 175 300 l 1
 325 150 l 1
 175 0 l 1
 25 150 l 1
EndSplineSet
Validated: 1
EndChar

StartChar: uni2B27
Encoding: 118 11047 118
Width: 283
VWidth: 0
Flags: W
VStem: 25 233
LayerCount: 2
Fore
SplineSet
25 150 m 1
 142 383 l 1
 258 150 l 1
 142 -83 l 1
 25 150 l 1
EndSplineSet
Validated: 1
EndChar

StartChar: uni2B28
Encoding: 119 11048 119
Width: 283
VWidth: 0
Flags: W
VStem: 25 233
LayerCount: 2
Fore
SplineSet
25 150 m 1
 142 383 l 1
 258 150 l 1
 142 -83 l 1
 25 150 l 1
142 250 m 1
 100 150 l 1
 142 67 l 1
 183 150 l 1
 142 250 l 1
EndSplineSet
Validated: 1
EndChar

StartChar: uni2B29
Encoding: 120 11049 120
Width: 283
VWidth: 0
Flags: W
VStem: 25 233
LayerCount: 2
Fore
SplineSet
25 150 m 1
 142 383 l 1
 258 150 l 1
 142 -83 l 1
 25 150 l 1
EndSplineSet
Validated: 1
EndChar

StartChar: uni2B2A
Encoding: 121 11050 121
Width: 283
VWidth: 0
Flags: W
VStem: 25 233
LayerCount: 2
Fore
SplineSet
25 150 m 1
 142 383 l 1
 258 150 l 1
 142 -83 l 1
 25 150 l 1
EndSplineSet
Validated: 1
EndChar

StartChar: uni2B2B
Encoding: 122 11051 122
Width: 283
VWidth: 0
Flags: W
VStem: 25 233
LayerCount: 2
Fore
SplineSet
25 150 m 1
 142 383 l 1
 258 150 l 1
 142 -83 l 1
 25 150 l 1
142 250 m 1
 100 150 l 1
 142 67 l 1
 183 150 l 1
 142 250 l 1
EndSplineSet
Validated: 1
EndChar

StartChar: uni2BBA
Encoding: 123 11194 123
Width: 750
VWidth: 0
Flags: W
HStem: -233 67<92 425> 1 67<325 425 492 658> 166 67<92 258 325 425> 400 67<325 658>
VStem: 25 67<-166 166> 258 67<68 166 233 400> 425 67<-166 1 68 166> 658 67<68 400>
LayerCount: 2
Fore
SplineSet
92 166 m 1
 92 -166 l 1
 425 -166 l 1
 425 1 l 1
 258 1 l 1
 258 166 l 1
 92 166 l 1
258 467 m 1
 725 467 l 1
 725 1 l 1
 492 1 l 1
 492 -233 l 1
 25 -233 l 1
 25 233 l 1
 258 233 l 1
 258 467 l 1
492 68 m 1
 658 68 l 1
 658 400 l 1
 325 400 l 1
 325 233 l 1
 492 233 l 1
 492 68 l 1
425 68 m 1
 425 166 l 1
 325 166 l 1
 325 68 l 1
 425 68 l 1
EndSplineSet
Validated: 1
EndChar

StartChar: uni2BBB
Encoding: 124 11195 124
Width: 750
VWidth: 0
Flags: W
HStem: -233 67<92 425> 1 466<258 425 492 725> 166 67<92 258>
VStem: 25 67<-166 166> 258 467<1 166 233 467> 425 67<-166 1>
LayerCount: 2
Fore
SplineSet
92 166 m 1xb8
 92 -166 l 1
 425 -166 l 1
 425 1 l 1xd4
 258 1 l 1xd8
 258 166 l 1
 92 166 l 1xb8
258 467 m 1xd8
 725 467 l 1
 725 1 l 1xd8
 492 1 l 1
 492 -233 l 1xd4
 25 -233 l 1
 25 233 l 1
 258 233 l 1xb8
 258 467 l 1xd8
EndSplineSet
Validated: 1
EndChar

StartChar: uni2BBC
Encoding: 125 11196 125
Width: 750
VWidth: 0
Flags: W
HStem: -233 21G<25 492> 447 20G<258 725>
LayerCount: 2
Fore
SplineSet
258 467 m 1
 725 467 l 1
 725 1 l 1
 492 1 l 1
 492 -233 l 1
 25 -233 l 1
 25 233 l 1
 258 233 l 1
 258 467 l 1
EndSplineSet
Validated: 1
EndChar

StartChar: uni2BBD
Encoding: 126 11197 126
Width: 517
VWidth: 0
Flags: W
HStem: -83 67<92 425> 316 67<92 425>
VStem: 25 67<-16 316> 425 67<-16 316>
LayerCount: 2
Fore
SplineSet
25 383 m 1
 492 383 l 1
 492 -83 l 1
 25 -83 l 1
 25 383 l 1
92 316 m 1
 92 -16 l 1
 425 -16 l 1
 425 316 l 1
 92 316 l 1
333 258 m 0
 351 258 366 243 366 225 c 0
 366 216 363 207 357 201 c 2
 305 150 l 1
 357 99 l 2
 363 93 366 84 366 75 c 0
 366 57 351 42 333 42 c 0
 324 42 315 45 309 51 c 2
 258 103 l 1
 207 51 l 2
 201 45 192 42 183 42 c 0
 165 42 150 57 150 75 c 0
 150 84 153 93 159 99 c 2
 211 150 l 1
 159 201 l 2
 153 207 150 216 150 225 c 0
 150 243 165 258 183 258 c 0
 192 258 201 255 207 249 c 2
 258 197 l 1
 309 249 l 2
 315 255 324 258 333 258 c 0
EndSplineSet
Validated: 1
EndChar

StartChar: uni2BBE
Encoding: 127 11198 127
Width: 517
VWidth: 0
Flags: W
HStem: -83 67<182.717 333.442> 316 67<182.717 333.442>
VStem: 25 67<74.7171 225.283> 425 67<74.7171 225.283>
LayerCount: 2
Fore
SplineSet
333 258 m 0
 351 258 366 243 366 225 c 0
 366 216 363 207 357 201 c 2
 305 150 l 1
 357 99 l 2
 363 93 366 84 366 75 c 0
 366 57 351 42 333 42 c 0
 324 42 315 45 309 51 c 2
 258 103 l 1
 207 51 l 2
 201 45 192 42 183 42 c 0
 165 42 150 57 150 75 c 0
 150 84 153 93 159 99 c 2
 211 150 l 1
 159 201 l 2
 153 207 150 216 150 225 c 0
 150 243 165 258 183 258 c 0
 192 258 201 255 207 249 c 2
 258 197 l 1
 309 249 l 2
 315 255 324 258 333 258 c 0
25 150 m 0
 25 279 129 383 258 383 c 0
 387 383 492 279 492 150 c 0
 492 21 387 -83 258 -83 c 0
 129 -83 25 21 25 150 c 0
258 316 m 0
 166 316 92 242 92 150 c 0
 92 58 166 -16 258 -16 c 0
 350 -16 425 58 425 150 c 0
 425 242 350 316 258 316 c 0
EndSplineSet
Validated: 1
EndChar

StartChar: uni2BBF
Encoding: 128 11199 128
Width: 517
VWidth: 0
Flags: W
HStem: -83 67<182.717 333.442> 316 67<182.717 333.442>
VStem: 25 67<74.7171 225.283> 425 67<74.7171 225.283>
LayerCount: 2
Fore
SplineSet
333 258 m 0
 351 258 366 243 366 225 c 0
 366 216 363 207 357 201 c 2
 305 150 l 1
 357 99 l 2
 363 93 366 84 366 75 c 0
 366 57 351 42 333 42 c 0
 324 42 315 45 309 51 c 2
 258 103 l 1
 207 51 l 2
 201 45 192 42 183 42 c 0
 165 42 150 57 150 75 c 0
 150 84 153 93 159 99 c 2
 211 150 l 1
 159 201 l 2
 153 207 150 216 150 225 c 0
 150 243 165 258 183 258 c 0
 192 258 201 255 207 249 c 2
 258 197 l 1
 309 249 l 2
 315 255 324 258 333 258 c 0
25 150 m 0
 25 279 129 383 258 383 c 0
 387 383 492 279 492 150 c 0
 492 21 387 -83 258 -83 c 0
 129 -83 25 21 25 150 c 0
258 316 m 0
 166 316 92 242 92 150 c 0
 92 58 166 -16 258 -16 c 0
 350 -16 425 58 425 150 c 0
 425 242 350 316 258 316 c 0
EndSplineSet
Validated: 1
EndChar

StartChar: uni2BC0
Encoding: 129 11200 129
Width: 517
VWidth: 0
Flags: W
HStem: -83 466<25 492>
VStem: 25 467<-83 383>
LayerCount: 2
Fore
SplineSet
25 383 m 1
 492 383 l 1
 492 -83 l 1
 25 -83 l 1
 25 383 l 1
EndSplineSet
Validated: 1
EndChar

StartChar: uni2BC1
Encoding: 130 11201 130
Width: 517
VWidth: 0
Flags: W
LayerCount: 2
Fore
SplineSet
25 150 m 1
 258 383 l 1
 492 150 l 1
 258 -83 l 1
 25 150 l 1
EndSplineSet
Validated: 1
EndChar

StartChar: uni2BC2
Encoding: 131 11202 131
Width: 542
VWidth: 0
Flags: W
LayerCount: 2
Fore
SplineSet
271 -83 m 1
 25 94 l 1
 119 383 l 1
 423 383 l 1
 517 94 l 1
 271 -83 l 1
EndSplineSet
Validated: 1
EndChar

StartChar: uni2BC3
Encoding: 132 11203 132
Width: 516
VWidth: 0
Flags: W
LayerCount: 2
Fore
SplineSet
355 383 m 1
 491 247 l 1
 491 53 l 1
 355 -83 l 1
 161 -83 l 1
 25 53 l 1
 25 247 l 1
 161 383 l 1
 355 383 l 1
EndSplineSet
Validated: 1
EndChar

StartChar: uni2BC4
Encoding: 133 11204 133
Width: 554
VWidth: 0
Flags: W
LayerCount: 2
Fore
SplineSet
277 402 m 1
 455 329 l 1
 529 150 l 1
 456 -28 l 1
 277 -102 l 1
 99 -29 l 1
 25 150 l 1
 98 328 l 1
 277 402 l 1
EndSplineSet
Validated: 1
EndChar

StartChar: uni2BC5
Encoding: 134 11205 134
Width: 589
VWidth: 0
Flags: W
LayerCount: 2
Fore
SplineSet
25 -83 m 1
 295 383 l 1
 564 -83 l 1
 25 -83 l 1
EndSplineSet
Validated: 1
EndChar

StartChar: uni2BC6
Encoding: 135 11206 135
Width: 589
VWidth: 0
Flags: W
LayerCount: 2
Fore
SplineSet
564 383 m 1
 294 -83 l 1
 25 383 l 1
 564 383 l 1
EndSplineSet
Validated: 1
EndChar

StartChar: uni2BC7
Encoding: 136 11207 136
Width: 516
VWidth: 0
Flags: W
LayerCount: 2
Fore
SplineSet
491 -120 m 1
 25 150 l 1
 491 420 l 1
 491 -120 l 1
EndSplineSet
Validated: 1
EndChar

StartChar: uni2BC8
Encoding: 137 11208 137
Width: 516
VWidth: 0
Flags: W
LayerCount: 2
Fore
SplineSet
25 420 m 1
 491 150 l 1
 25 -120 l 1
 25 420 l 1
EndSplineSet
Validated: 1
EndChar

StartChar: uni2BCA
Encoding: 138 11210 138
Width: 517
VWidth: 0
Flags: W
HStem: 150 233<205.281 310.773>
LayerCount: 2
Fore
SplineSet
25 150 m 1
 25 279 129 383 258 383 c 0
 387 383 492 279 492 150 c 1
 25 150 l 1
EndSplineSet
Validated: 1
EndChar

StartChar: uni2BCB
Encoding: 139 11211 139
Width: 517
VWidth: 0
Flags: W
HStem: -83 233<205.281 310.773>
LayerCount: 2
Fore
SplineSet
25 150 m 1
 492 150 l 1
 492 21 387 -83 258 -83 c 0
 129 -83 25 21 25 150 c 1
EndSplineSet
Validated: 1
EndChar

StartChar: uni2BCC
Encoding: 140 11212 140
Width: 517
VWidth: 0
Flags: W
HStem: 116 68<28.2926 140.601 375.95 488.348>
VStem: 225 67<-80.5146 31.7249 267.182 379.515>
LayerCount: 2
Fore
SplineSet
292 349 m 0
 293 251 360 183 457 183 c 2
 458 183 l 1
 458 184 l 1
 476 184 492 168 492 150 c 0
 492 132 477 116 459 116 c 2
 458 116 l 2
 359 115 292 48 292 -50 c 0
 292 -68 276 -84 258 -84 c 0
 240 -84 225 -68 225 -50 c 0
 225 48 157 116 58 116 c 0
 40 116 25 132 25 150 c 0
 25 168 40 184 58 184 c 2
 59 184 l 2
 158 185 225 251 225 348 c 2
 225 349 l 2
 225 367 240 383 258 383 c 0
 276 383 292 367 292 349 c 0
EndSplineSet
Validated: 1
EndChar

StartChar: uni2BCD
Encoding: 141 11213 141
Width: 401
VWidth: 0
Flags: W
HStem: 37 225<127.653 273.205>
VStem: 87 227<77.6527 223.257>
LayerCount: 2
Fore
SplineSet
83 314 m 0
 118 280 160 262 201 262 c 0
 242 262 283 280 317 314 c 1
 318 314 l 1
 317 315 l 1
 323 321 332 325 341 325 c 0
 350 325 359 321 365 315 c 0
 372 308 376 300 376 291 c 0
 376 282 372 274 365 267 c 0
 331 232 314 190 314 149 c 0
 314 108 331 66 365 32 c 0
 371 26 375 17 375 8 c 0
 375 -1 371 -10 365 -16 c 0
 359 -22 351 -25 343 -25 c 0
 334 -25 325 -22 318 -15 c 0
 284 19 242 37 201 37 c 0
 159 37 117 19 82 -16 c 0
 75 -23 67 -26 60 -26 c 0
 42 -26 25 -8 25 10 c 0
 25 17 27 25 34 32 c 0
 69 67 87 109 87 151 c 0
 87 192 70 232 36 266 c 1
 36 267 l 1
 29 274 26 282 26 291 c 0
 26 299 29 308 35 314 c 0
 41 320 50 324 59 324 c 0
 68 324 77 320 83 314 c 0
EndSplineSet
Validated: 1
EndChar

StartChar: uni2BCE
Encoding: 142 11214 142
Width: 517
VWidth: 0
Flags: W
HStem: 116 68<28.2926 140.601 375.95 488.348>
VStem: 225 67<-80.5146 31.7249 267.182 379.515>
LayerCount: 2
Fore
SplineSet
292 349 m 0
 293 251 360 183 457 183 c 2
 458 183 l 1
 458 184 l 1
 476 184 492 168 492 150 c 0
 492 132 477 116 459 116 c 2
 458 116 l 2
 359 115 292 48 292 -50 c 0
 292 -68 276 -84 258 -84 c 0
 240 -84 225 -68 225 -50 c 0
 225 48 157 116 58 116 c 0
 40 116 25 132 25 150 c 0
 25 168 40 184 58 184 c 2
 59 184 l 2
 158 185 225 251 225 348 c 2
 225 349 l 2
 225 367 240 383 258 383 c 0
 276 383 292 367 292 349 c 0
260 223 m 1
 242 193 217 169 185 151 c 1
 215 133 239 108 257 76 c 1
 275 106 300 130 332 148 c 1
 302 166 278 191 260 223 c 1
EndSplineSet
Validated: 1
EndChar

StartChar: uni2BCF
Encoding: 143 11215 143
Width: 401
VWidth: 0
Flags: W
HStem: 37 67<148.037 250.485> 195 67<150.982 252.831>
VStem: 87 69<100.087 202.139> 246 68<96.9775 199.018>
LayerCount: 2
Fore
SplineSet
83 314 m 0
 118 280 160 262 201 262 c 0
 242 262 283 280 317 314 c 1
 318 314 l 1
 317 315 l 1
 323 321 332 325 341 325 c 0
 350 325 359 321 365 315 c 0
 372 308 376 300 376 291 c 0
 376 282 372 274 365 267 c 0
 331 232 314 190 314 149 c 0
 314 108 331 66 365 32 c 0
 371 26 375 17 375 8 c 0
 375 -1 371 -10 365 -16 c 0
 359 -22 351 -25 343 -25 c 0
 334 -25 325 -22 318 -15 c 0
 284 19 242 37 201 37 c 0
 159 37 117 19 82 -16 c 0
 75 -23 67 -26 60 -26 c 0
 42 -26 25 -8 25 10 c 0
 25 17 27 25 34 32 c 0
 69 67 87 109 87 151 c 0
 87 192 70 232 36 266 c 1
 36 267 l 1
 29 274 26 282 26 291 c 0
 26 299 29 308 35 314 c 0
 41 320 50 324 59 324 c 0
 68 324 77 320 83 314 c 0
150 203 m 1
 154 188 156 172 156 157 c 0
 156 138 153 118 147 99 c 1
 162 103 178 104 193 104 c 0
 212 104 232 102 251 96 c 1
 247 111 246 127 246 142 c 0
 246 161 248 181 254 200 c 1
 239 196 223 195 208 195 c 0
 189 195 169 197 150 203 c 1
EndSplineSet
Validated: 1
EndChar
